<svg width="11" height="6" viewBox="0 0 11 6" fill="none" xmlns="http://www.w3.org/2000/svg">
<path d="M10.6236 1.12001C10.624 0.946246 10.5631 0.777845 10.4515 0.644043C10.3887 0.568737 10.3116 0.506487 10.2245 0.460859C10.1374 0.415232 10.0421 0.387122 9.94413 0.378141C9.84612 0.369161 9.74728 0.379485 9.65329 0.408522C9.5593 0.43756 9.47199 0.48474 9.39637 0.547361L5.38526 3.87916L1.36668 0.666354C1.29013 0.604578 1.20205 0.558444 1.10751 0.530606C1.01296 0.502768 0.913813 0.493774 0.81576 0.50414C0.717706 0.514507 0.62268 0.54403 0.536144 0.591013C0.449609 0.637995 0.373269 0.701511 0.311514 0.77791C0.243388 0.854858 0.192001 0.94497 0.160579 1.04259C0.129157 1.14021 0.118378 1.24323 0.128919 1.34519C0.139459 1.44715 0.171091 1.54584 0.22183 1.63507C0.272569 1.7243 0.341319 1.80215 0.423766 1.86372L4.91381 5.45582C5.04771 5.5652 5.21567 5.625 5.38901 5.625C5.56234 5.625 5.7303 5.5652 5.8642 5.45582L10.3542 1.73729C10.4448 1.66268 10.5164 1.56791 10.5632 1.46066C10.61 1.35341 10.6307 1.23671 10.6236 1.12001Z" fill="white"/>
</svg>
