<svg width="7" height="14" viewBox="0 0 7 14" fill="none" xmlns="http://www.w3.org/2000/svg">
<path d="M0.993352 0.00180435C0.761661 0.00134945 0.537126 0.0825443 0.358724 0.231296C0.258315 0.315059 0.175316 0.417933 0.114479 0.534022C0.0536416 0.650112 0.0161625 0.777137 0.00418798 0.907824C-0.00778654 1.03851 0.00597897 1.17029 0.0446958 1.29562C0.0834126 1.42094 0.146319 1.53735 0.229814 1.63818L4.67221 6.98632L0.388472 12.3444C0.306104 12.4465 0.244592 12.5639 0.207475 12.69C0.170357 12.8161 0.158365 12.9482 0.172187 13.079C0.186009 13.2097 0.225373 13.3364 0.288017 13.4518C0.35066 13.5672 0.435349 13.669 0.537213 13.7513C0.639811 13.8421 0.75996 13.9107 0.89012 13.9526C1.02028 13.9945 1.15764 14.0088 1.29359 13.9948C1.42953 13.9807 1.56112 13.9385 1.68009 13.8709C1.79907 13.8032 1.90286 13.7116 1.98496 13.6016L6.77442 7.61492C6.92027 7.43638 7 7.21244 7 6.98133C7 6.75021 6.92027 6.52627 6.77442 6.34773L1.81639 0.361009C1.71691 0.240259 1.59055 0.144807 1.44755 0.0823965C1.30455 0.0199862 1.14894 -0.00762463 0.993352 0.00180435Z" fill="white"/>
</svg>
